<?xml version="1.0" encoding="utf-8"?>
<!-- Generator: Adobe Illustrator 16.0.3, SVG Export Plug-In . SVG Version: 6.00 Build 0)  -->
<!DOCTYPE svg PUBLIC "-//W3C//DTD SVG 1.1//EN" "http://www.w3.org/Graphics/SVG/1.1/DTD/svg11.dtd">
<svg version="1.1" xmlns="http://www.w3.org/2000/svg" xmlns:xlink="http://www.w3.org/1999/xlink" x="0px" y="0px"
	 width="284.982px" height="58.062px" viewBox="0 0 284.982 58.062" enable-background="new 0 0 284.982 58.062"
	 xml:space="preserve">
<g id="Layer_1">
	<g>
		<path fill-rule="evenodd" clip-rule="evenodd" fill="#FFFFFF" d="M32.309,4.022c0,0,0.154,0.8,0.191,1.954
			c0.107,3.281-0.783,5.389-3.1,7.7c-0.473,0.472-1.006,0.964-1.603,1.472c7.919,4.926,12.055,15.695,7.458,23.222
			c-6.205,10.142-18.5,7.834-25.218,0.893c-7.033-7.271-6.1-16.675-1.05-23.647C14.199,8.422,23.777,3.777,32.309,4.022
			L32.309,4.022z"/>
		<path fill-rule="evenodd" clip-rule="evenodd" fill="#99AD68" d="M13.215,45.341C6.403,43.113,1.542,36.494,0.351,29.558
			C-2.936,10.414,17.436-6.86,37.785,2.732c0.24,4.301-1.754,10.42-7.236,12.258c27.203,17.172,3.945,52.35-24.56,40.783
			c-5.203-2.652-2.423-7.5,3.136-4.691c6.209,2.141,14.278,2.141,19.362-0.666c3.279-1.793,6.213-4.244,8.277-7.375
			c0.58-0.879,1.352-2.195,1.963-3.631c0.432-1.014,1.82-5.203,0.742-5.656c-0.27-0.113-0.412,0.207-0.486,0.508
			c-0.688,2.781-2.039,5.188-3.895,7.355c-2.18,2.545-4.93,4.482-8.402,5.748c-4.064,1.482-8.775,1.668-15.252,0.252
			C11.859,47.154,12.719,45.865,13.215,45.341L13.215,45.341z M31.994,4.451c0,0,0.148,0.777,0.186,1.896
			c0.104,3.182-0.76,5.225-3.006,7.467c-0.459,0.459-0.977,0.936-1.555,1.428c7.68,4.777,11.691,15.223,7.232,22.521
			c-6.018,9.836-17.943,7.598-24.458,0.865c-6.821-7.051-5.916-16.172-1.018-22.934C14.43,8.718,23.719,4.212,31.994,4.451
			L31.994,4.451z"/>
		<path fill-rule="evenodd" clip-rule="evenodd" fill="#292929" d="M8.841,26.044c1.463-14.596,18.26-17.49,24.504,1.967
			C38.383,48.009,6.527,43.658,8.841,26.044L8.841,26.044z M22.537,35.648c13.264,0.484,6.91-13.08-1.801-16.078
			C12.104,16.599,7.306,35.648,22.537,35.648L22.537,35.648z"/>
		<path fill-rule="evenodd" clip-rule="evenodd" fill="#FFFFFF" d="M83.828,23.201c0.2,6.289-6.813,5.813-7.008-0.233
			c-0.087-2.674,2.094-3.404,3.528-3.308c0.623,0.042,1.51,0.405,2.232,1.044C83.261,21.302,83.794,22.148,83.828,23.201
			L83.828,23.201z"/>
		<path fill-rule="evenodd" clip-rule="evenodd" fill="#FFFFFF" d="M130.159,49.668c-3.403,4.119-8.195,7.858-13.609,6.379
			c-3.079-1.062-5.082-3.992-6.077-7.561c-0.938-3.352-0.987-7.264-0.208-10.714c1.224-5.423,4.604-9.879,8.562-9.925
			c7.427,0.718,11.229,8.676,7.44,14.289c-2.108,3.124-6.479,4.716-8.598,5.698c-0.803,0.373-1.438,0.546-1.33,2.064
			c0.256,3.646,6.628,3.587,10.643-4.449c0.37-0.74,2.877-3.93,4.514-2.973C134.924,44.485,130.579,49.162,130.159,49.668
			L130.159,49.668z M114.568,44.665c4.462-1.384,8.118-5.121,8.45-7.166c0.63-3.866-5.479-7.185-7.736-0.85
			C114.71,38.264,114.552,41.829,114.568,44.665L114.568,44.665z"/>
		<path fill-rule="evenodd" clip-rule="evenodd" fill="#FFFFFF" d="M195.399,56.745c13.43-2.292,18.596-23.435,1.936-30.647
			C180.006,20.414,179.111,60.202,195.399,56.745L195.399,56.745z M189.304,39.696c1.576-16.609,12.37-8.883,13.758,1.938
			C204.454,52.447,186.989,58.833,189.304,39.696L189.304,39.696z"/>
		<path fill-rule="evenodd" clip-rule="evenodd" fill="#FFFFFF" d="M159.106,34.748c-0.326,3.357,4.747,20.719,1.1,21.021
			c-2.15,0.176-3.471,0.4-4.036-0.759c-0.537-1.101,1.579-10.037-0.157-7.327c-0.398,0.622-0.32,0.67-0.964,1.824
			c-5.975,10.7-14.082,7.855-18.796-0.848c-2.83-5.224-4.437-12.555-3.63-20.335c1.287-12.415,6.608-28.69,19.125-26.017
			c9.832,2.103,3.063,15.261-0.376,11.898c-8.123-17.818-24.32,25.211-6.397,35.607c5.175,3.001,9.601-6.786,8.54-11.093
			c-0.745-3.027-0.92-3.131-2.422-2.681c-1.169,0.352-5.17,3.786-6.289,2.748c-1.4-1.299-2.157-6.415,0.648-6.563
			c3.249-0.171,5.089,0.885,8.924-3.752c3.488-4.217,6.33-2.96,5.73,1.606C159.841,32.074,159.255,33.213,159.106,34.748
			L159.106,34.748z"/>
		<path fill-rule="evenodd" clip-rule="evenodd" fill="#FFFFFF" d="M249.208,51.05c1.414-4.764,3.066-12.539,2.012-15.415
			c-1.582-4.312-7.613-5.893-10.592-1.48c-1.827,2.706-1.874,12.393,0.451,18.06c0.555,1.354-0.479,3.244-2.239,3.822
			c-6.631,2.174-1.477-16.04-5.347-21.859c-0.836-1.25-1.85-1.375-1.965-2.31c-0.406-3.336,3.605-5.47,5.374-3.401
			c0.474,0.553,0.196,1.463,0.874,1.873c7.359-6.729,18.303-1.672,18.979,7.966c0.226,3.239-0.73,10.274-2.587,14.725
			c-0.524,1.248-1.113,2.293-1.768,2.995c-1.582,1.147-2.507,0.458-3.075,0.079C248.079,55.268,248.741,52.633,249.208,51.05
			L249.208,51.05z"/>
		<path fill-rule="evenodd" clip-rule="evenodd" fill="#FFFFFF" d="M65.759,11.508c-4.36-7.252-14.128-3.102-12.042,5.268
			c2.801,11.231,16.476,13.921,21.515,23.934c2.766,5.497,1.033,10.996-3.2,13.407c-4.342,2.474-11.683,3.454-16.189,0.147
			c-2.26-1.657-2.072-2.909-3.266,0.21c-0.384,1.004-1.021,2.105-2.266,1.049c-1.956-1.663-1.917-6.938,1.382-9.185
			c2.101-1.12,3.526-0.528,5.472,1.396c4.725,3.882,10.732,2.729,12.29-0.484c1-2.066-0.008-5.298-2.017-7.554
			c-2.902-3.263-7.481-6.075-11.25-10.476c-4.968-5.807-8.76-12.305-6.283-18.705c2.157-5.57,8.352-10.7,15.662-7
			c4.319,2.187,8.538,7.178,6.12,12.133c-1.667,3.418-6.825,4.516-9.209,0.979C61.04,14.495,66.966,13.48,65.759,11.508
			L65.759,11.508z"/>
		<path fill-rule="evenodd" clip-rule="evenodd" fill="#FFFFFF" d="M277.423,29.663c0.625-5.353-1.582-20.915-5.631-21.304
			c-1.09-0.108-1.346-2.806-0.6-4.407c0.744-1.603,2.493-2.109,5.408-0.884c4.666,1.958,5.023,19.785,5.115,25.156
			c0.088,5.162-0.158,11.562,0.617,16.451c0.299,1.859,0.805,3.336,1.325,4.54c0.851,1.959,1.699,3.314,1.149,4.424
			c-1.184,2.399-4.797,3.341-6.025,2.155c-0.852-0.825-1.229-2.311-1.443-4.057c-6.974,11.283-18.041,2.403-19.604-8.445
			C256.227,32.823,265.604,20.67,277.423,29.663L277.423,29.663z M266.526,50.45c8.777,6.463,11.563-10.186,7.154-16.441
			C268.33,26.426,254.788,41.148,266.526,50.45L266.526,50.45z"/>
		<path fill-rule="evenodd" clip-rule="evenodd" fill="#FFFFFF" d="M182.563,29.2c-2.021-1.574-6.289-3.441-10.199-3.032
			c-5.457,0.571-10.504,4.284-9.988,10.082c0.223,2.476,0.469,13.044,1.404,17.39c0.319,1.482,1.157,2.872,2.607,3.265
			c1.363,0.373,3.094-0.011,3.756-1.58c0.898-2.122-0.093-4.089-0.6-5.89c-1.035-3.657-1.503-8.753-1.797-11.902
			c-0.602-6.473,9.102-7.362,11.395-3.594c-1.648,2.576,0.738,4.195,3.726,1.854C185.563,33.682,184.481,30.701,182.563,29.2
			L182.563,29.2z"/>
		<path fill-rule="evenodd" clip-rule="evenodd" fill="#FFFFFF" d="M214.776,34.096c-2.075,4.844-1.253,24.254,8.383,15.058
			c2.103-2.007,2.367-8.449,1.582-13.965c-0.184-1.271-1.216-5.144-1.564-6.309c-0.442-1.488,0.749-3.564,2.562-4.2
			c1.469-0.512,3.127,0.407,3.729,1.898c1.006,2.486,0.342,6.561,0.234,8.229c-0.318,4.976-1.102,11.099,0.605,14.32
			c0.726,1.374,1.736,1.514,1.771,2.538c0.126,3.663-4.072,6.01-5.667,3.736c-0.424-0.606-0.07-1.607-0.72-2.058
			c-7.925,7.39-16.653,1.593-16.521-8.991c0.029-2.313-0.282-6.088,0.527-9.363c0.625-2.55,1.023-4.978,2.305-6.358
			c1.679-1.26,2.548-0.503,3.082-0.087C216.264,29.464,215.381,32.358,214.776,34.096L214.776,34.096z"/>
		<path fill-rule="evenodd" clip-rule="evenodd" fill="#FFFFFF" d="M78.362,36.996c-0.101,0.063-0.2,0.122-0.296,0.175
			c-2.98,1.663-2.082-1.731-0.479-3.73c1.619-2.018,2.979-2.77,4.236-2.595c1.125,0.156,1.98,0.819,2.183,1.788
			c0.81,3.918-3.603,14.903,1.065,17.799c0.938,0.582,1.986,0.38,2.688-0.438c0.877-1.021,0.998-2.689,2.094-3.021
			c0.494-0.15,0.899,0.06,1.082,1.369c0.325,3.943-1.431,9.58-6.803,7.648c-4.781-2.176-4.572-11.313-4.555-16.326
			C79.577,39.323,79.449,36.326,78.362,36.996L78.362,36.996z"/>
		<path fill-rule="evenodd" clip-rule="evenodd" fill="#D8EAC1" d="M22.537,35.648c13.264,0.484,6.91-13.08-1.801-16.078
			C12.104,16.599,7.306,35.648,22.537,35.648L22.537,35.648z"/>
	</g>
	<path display="none" fill="#FDFDFE" d="M443.804-226.745"/>
	<path fill="#FFFFFF" d="M111.674,30.82c-0.445-1.035-1.154-1.692-2.268-1.65c-2.622,0.208-3.134,0.104-5.585,0.251
		c-2.452,0.146-4.55,0.251-6.295,0.315c0.341-3.003,0.682-6.008,1.024-9.013c0.948-8.732,0.99-14.107,0.127-16.125
		c-0.652-1.528-1.697-2.126-3.133-1.795c-2.237,0.414-2.769,4.28-3.015,11.546c-0.117,4.104,0.222,9.302,0.784,16.151
		c-0.534,0.131-2.165,0.605-3.236,0.923c-1.071,0.317-1.925,0.654-2.562,1.009c-0.367,0.181-0.548,0.561-0.547,1.143
		c0.001,0.582,0.167,1.254,0.492,2.018c0.863,2.018,2.199,5.084,4.01,9.2c1.808,4.115,3.027,6.909,3.657,8.383
		c1.096,2.563,2.517,3.811,4.263,3.748c1.406-0.052,2.246-0.25,2.518-0.591c0.274-0.343,0.131-1.169-0.43-2.478
		c-1.538-3.6-2.569-7.163-3.092-10.689c-0.284-1.817-0.426-5.352-0.448-8.397c5.277-1.026,9.219-0.922,12.359-1.758l0.163-0.059
		c1.212-0.763,0.542-0.368,0.962-0.827C111.845,31.667,111.905,31.365,111.674,30.82z M95.578,48.083l-0.188,0.206l-0.297,0.014
		c0,0-0.136-0.229-0.519-0.906c-0.383-0.676-1.793-5.039-1.872-5.114c-0.078-0.076-1.322-4.106-1.467-4.531
		c-0.148-0.426-0.034-0.707-0.034-0.707s0.158-0.323,0.494-0.575c0.336-0.253,1.591-0.59,1.591-0.59l0.25-0.012l0.215,0.343
		l0.143,0.859l0.356,2.146l1.096,6.163l0.366,2.343L95.578,48.083z"/>
</g>
<g id="Layer_2">
</g>
</svg>
